<?xml version="1.0" standalone="no"?>
<!DOCTYPE svg PUBLIC "-//W3C//DTD SVG 20010904//EN"
 "http://www.w3.org/TR/2001/REC-SVG-20010904/DTD/svg10.dtd">
<svg version="1.0" xmlns="http://www.w3.org/2000/svg"
 width="588.000000pt" height="588.000000pt" viewBox="0 0 588.000000 588.000000"
 preserveAspectRatio="xMidYMid meet">
<metadata>
Created by potrace 1.11, written by Peter Selinger 2001-2013
</metadata>
<g transform="translate(0.000000,588.000000) scale(0.100000,-0.100000)"
fill="#000000" stroke="none">
<path d="M2893 5828 c-45 -21 -42 -17 -161 -268 -22 -47 -66 -139 -97 -205
-32 -66 -71 -149 -87 -185 -17 -36 -56 -120 -88 -186 l-58 -122 -58 -16 c-89
-25 -215 -66 -251 -82 -17 -8 -34 -14 -38 -14 -39 0 -375 -179 -480 -255 -166
-121 -199 -149 -335 -285 -86 -85 -210 -229 -250 -290 -8 -12 -27 -40 -42 -61
-16 -21 -28 -41 -28 -43 0 -2 -16 -28 -35 -57 -94 -142 -241 -494 -270 -644
-2 -11 -4 -20 -5 -20 -1 0 -3 -7 -5 -15 -47 -217 -60 -331 -60 -555 0 -206 10
-317 40 -465 3 -14 7 -36 10 -50 3 -14 16 -65 30 -115 14 -49 27 -99 30 -110
10 -40 98 -260 107 -266 6 -3 10 -10 10 -15 0 -5 4 -19 9 -32 5 -13 9 -25 9
-27 0 -2 -23 -52 -52 -112 -28 -59 -52 -110 -53 -113 0 -3 -15 -34 -32 -70
-60 -126 -145 -307 -223 -476 -17 -38 -36 -76 -41 -84 -5 -8 -13 -24 -18 -35
-5 -11 -24 -54 -44 -95 -19 -41 -55 -120 -81 -175 -26 -55 -51 -108 -56 -117
-23 -41 0 -121 42 -147 53 -33 88 -26 219 43 68 35 144 76 169 90 25 14 56 31
70 38 14 7 36 19 50 29 25 16 83 49 150 85 19 11 37 21 40 25 3 3 23 16 45 29
97 57 220 136 223 143 2 4 7 7 11 7 5 0 56 31 115 70 58 38 108 70 111 70 3 0
15 -9 27 -20 12 -11 40 -32 62 -47 23 -15 43 -30 46 -33 8 -9 130 -85 195
-122 221 -126 541 -239 775 -274 25 -3 52 -8 61 -9 85 -16 305 -29 382 -23 20
2 37 0 37 -5 0 -4 5 -5 10 -2 6 3 38 8 73 11 155 13 210 20 322 45 50 11 101
22 115 25 45 9 290 93 348 120 188 85 311 156 463 264 l97 71 149 -97 c81 -53
159 -104 173 -113 14 -8 33 -20 42 -26 10 -5 66 -39 125 -75 60 -36 117 -70
128 -76 11 -6 67 -38 125 -71 210 -120 361 -193 397 -193 51 0 113 63 113 115
0 20 -7 49 -15 63 -8 15 -32 66 -55 115 -63 137 -118 254 -167 357 -25 52 -60
127 -78 165 -18 39 -54 115 -80 170 -101 214 -122 261 -129 283 -4 12 -12 22
-17 22 -5 0 -9 6 -9 13 0 8 -13 41 -30 75 -32 66 -35 82 -21 97 36 40 158 394
187 540 19 100 24 125 29 155 27 182 28 537 0 695 -3 17 -8 46 -11 65 -11 65
-22 117 -28 138 -3 9 -7 28 -10 42 -9 46 -53 184 -90 280 -158 407 -415 749
-786 1044 -145 115 -412 261 -610 334 -30 11 -73 26 -95 33 -22 6 -49 16 -60
20 -11 5 -31 10 -45 13 -46 7 -110 29 -110 37 0 4 -27 65 -61 136 -34 70 -74
155 -89 188 -115 248 -221 470 -260 549 -32 63 -39 72 -80 87 -43 16 -47 16
-87 -3z"/>
</g>
</svg>
